<svg id="Capa_1" enable-background="new 0 0 511.239 511.239" height="512" viewBox="0 0 511.239 511.239" width="512" xmlns="http://www.w3.org/2000/svg"><g><g><path d="m255.62 42.524c-40.466 0-79.276 14.924-109.283 42.021-3.074 2.776-3.316 7.519-.54 10.593s7.519 3.315 10.593.54c27.245-24.604 62.486-38.154 99.23-38.154 81.668 0 148.109 66.441 148.109 148.109s-66.441 148.11-148.109 148.11-148.11-66.441-148.11-148.109c0-30.777 9.349-60.284 27.036-85.331 2.389-3.384 1.583-8.063-1.801-10.453-3.385-2.389-8.063-1.583-10.453 1.801-19.483 27.592-29.782 60.091-29.782 93.983 0 89.938 73.171 163.109 163.109 163.109s163.109-73.171 163.109-163.109-73.17-163.11-163.108-163.11z"/><path d="m335.718 231.405c4.143 0 7.5-3.357 7.5-7.5v-98.923c0-5.652-4.598-10.25-10.25-10.25h-154.697c-5.652 0-10.25 4.598-10.25 10.25v161.303c0 5.652 4.598 10.25 10.25 10.25h154.697c5.652 0 10.25-4.598 10.25-10.25v-27.355c0-4.143-3.357-7.5-7.5-7.5s-7.5 3.357-7.5 7.5v22.605h-65.098v-63.456c0-5.554-4.518-10.071-10.071-10.071h-39.203c-5.554 0-10.071 4.518-10.071 10.071v63.456h-20.753v-86.768h145.197v29.138c-.001 4.143 3.357 7.5 7.499 7.5zm-116.944-8.397h29.346v58.527h-29.346zm-35.753-93.276h145.197v17.852h-145.197zm0 50.036v-17.184h145.197v17.184z"/><path d="m255.726 0h-.213c-113.387 0-205.634 92.247-205.634 205.635 0 84.616 57.285 155.549 110.979 215.393 20.621 22.983 56.617 61.336 76.238 82.152 4.889 5.186 11.506 8.048 18.633 8.06h.039c7.021 0 13.817-2.922 18.651-8.02 27.563-29.059 52.41-55.944 75.96-82.192 53.694-59.844 110.979-130.776 110.979-215.393.002-113.388-92.245-205.635-205.632-205.635zm83.49 411.01c-23.457 26.145-48.212 52.931-75.679 81.888-2.044 2.155-4.802 3.342-7.767 3.342-.006 0-.012 0-.018 0-2.961-.005-5.71-1.194-7.74-3.349-19.575-20.766-55.476-59.017-75.99-81.881-51.837-57.776-107.143-126.058-107.143-205.375 0-105.116 85.518-190.635 190.634-190.635h.213c105.116 0 190.634 85.519 190.634 190.635 0 79.317-55.306 147.599-107.144 205.375z"/></g></g></svg>